<?xml version="1.0" encoding="UTF-8" standalone="no"?>
<svg
   xmlns:dc="http://purl.org/dc/elements/1.1/"
   xmlns:cc="http://creativecommons.org/ns#"
   xmlns:rdf="http://www.w3.org/1999/02/22-rdf-syntax-ns#"
   xmlns:svg="http://www.w3.org/2000/svg"
   xmlns="http://www.w3.org/2000/svg"
   xmlns:sodipodi="http://sodipodi.sourceforge.net/DTD/sodipodi-0.dtd"
   xmlns:inkscape="http://www.inkscape.org/namespaces/inkscape"
   inkscape:export-ydpi="279.27274"
   inkscape:export-xdpi="279.27274"
   inkscape:export-filename="C:\Users\Hayde\Desktop\TAFE\myLogo.png"
   sodipodi:docname="myLogo.svg"
   inkscape:version="1.0 (4035a4fb49, 2020-05-01)"
   id="svg8"
   version="1.1"
   viewBox="0 0 46.566666 29.633334"
   height="112"
   width="176">
  <defs
     id="defs2" />
  <sodipodi:namedview
     inkscape:showpageshadow="false"
     inkscape:window-maximized="1"
     inkscape:window-y="487"
     inkscape:window-x="1072"
     inkscape:window-height="1027"
     inkscape:window-width="1920"
     showguides="false"
     units="px"
     showgrid="true"
     inkscape:document-rotation="0"
     inkscape:current-layer="layer1"
     inkscape:document-units="px"
     inkscape:cy="95.619173"
     inkscape:cx="59.376757"
     inkscape:zoom="3.1758389"
     inkscape:pageshadow="2"
     inkscape:pageopacity="0.0"
     borderopacity="1.0"
     bordercolor="#666666"
     pagecolor="#ffffff"
     id="base">
    <inkscape:grid
       spacingy="2.1166667"
       spacingx="2.1166667"
       id="grid833"
       type="xygrid" />
  </sodipodi:namedview>
  <metadata
     id="metadata5">
    <rdf:RDF>
      <cc:Work
         rdf:about="">
        <dc:format>image/svg+xml</dc:format>
        <dc:type
           rdf:resource="http://purl.org/dc/dcmitype/StillImage" />
        <dc:title></dc:title>
      </cc:Work>
    </rdf:RDF>
  </metadata>
  <g
     id="layer1"
     inkscape:groupmode="layer"
     inkscape:label="Layer 1">
    <path
       id="path835"
       d="m -52.916666,44.449999 c 4.233333,0 4.233333,-4.233333 4.233333,-4.233333 V 19.049999"
       style="fill:none;stroke:#000000;stroke-width:1;stroke-linecap:round;stroke-linejoin:round;stroke-miterlimit:4;stroke-dasharray:none;stroke-opacity:1" />
    <path
       id="path837"
       d="m -48.683333,33.866666 c 6.35,0 6.35,4.233333 6.35,4.233333 v 4.233333 c 0,0 0,2.116667 2.116666,2.116667 2.116667,0 4.233334,0 4.233334,-4.233333 0,-4.233334 0,-14.816667 0,-14.816667"
       style="fill:none;stroke:#000000;stroke-width:1;stroke-linecap:round;stroke-linejoin:round;stroke-miterlimit:4;stroke-dasharray:none;stroke-opacity:1" />
    <path
       id="path849"
       d="m -33.866667,33.866666 c 0,0 0,2.116666 0,6.35 0,4.233333 4.233333,4.233333 4.233333,4.233333 0,0 4.233334,0 4.233334,-4.233333 0,-4.233334 0,-2.116667 0,-6.35 0,-4.233334 -4.233334,-4.233334 -4.233334,-4.233334 0,0 -4.233333,0 -4.233333,4.233334 z"
       style="fill:none;stroke:#000000;stroke-width:1;stroke-linecap:round;stroke-linejoin:round;stroke-miterlimit:4;stroke-dasharray:none;stroke-opacity:1" />
    <path
       sodipodi:nodetypes="cccscscc"
       id="path851"
       d="m -35.983333,40.216666 c 0,4.233333 4.233333,4.233334 4.233333,4.233334 l 4.233333,-1e-6 c 0,0 4.233333,0 4.233333,-4.233333 v -8.466667 c 0,0 0,-2.116667 2.116667,-2.116667 2.116667,0 2.116667,2.116667 2.116667,2.116667 v 2.116667"
       style="fill:none;stroke:#000000;stroke-width:1;stroke-linecap:round;stroke-linejoin:round;stroke-miterlimit:4;stroke-dasharray:none;stroke-opacity:1" />
    <path
       sodipodi:nodetypes="ccc"
       id="path853"
       d="m -19.05,31.749999 c 0,-2.116667 2.116666,-2.116667 2.116666,-2.116667 0,0 2.116667,0 2.116667,2.116667 0,0 1e-6,8.466668 1e-6,10.583334 0,2.116667 2.116667,2.116667 2.116667,2.116667 0,0 2.116666,0 2.116666,-2.116667 v -2.116666"
       style="fill:none;stroke:#000000;stroke-width:1;stroke-linecap:round;stroke-linejoin:round;stroke-miterlimit:4;stroke-dasharray:none;stroke-opacity:1" />
    <path
       sodipodi:nodetypes="csc"
       id="path855"
       d="M -10.583335,40.216666 V 29.633332 c 0,-4.233334 4.2333335,-4.233334 4.2333335,-4.233334"
       style="fill:none;stroke:#000000;stroke-width:1;stroke-linecap:round;stroke-linejoin:round;stroke-miterlimit:4;stroke-dasharray:none;stroke-opacity:1" />
    <path
       sodipodi:nodetypes="cc"
       id="path857"
       d="m -10.583333,33.866667 2.1166645,-10e-7"
       style="fill:none;stroke:#000000;stroke-width:1;stroke-linecap:round;stroke-linejoin:round;stroke-miterlimit:4;stroke-dasharray:none;stroke-opacity:1" />
    <path
       id="path865"
       d="m 12.700001,10.583334 v 16.933333 h 4.233333 c 0,0 4.233333,0 4.233333,-4.233333 0,-4.233334 -4.233333,-4.233334 -4.233333,-4.233334 0,0 4.233333,0 4.233333,-4.233333 0,-4.233333 -4.233333,-4.233333 -4.233333,-4.233333 z"
       style="fill:none;stroke:#000000;stroke-width:1;stroke-linecap:round;stroke-linejoin:round;stroke-miterlimit:4;stroke-dasharray:none;stroke-dashoffset:2.64583;stroke-opacity:1" />
    <path
       id="path867"
       d="M 10.583334,2.1166667 V 27.516667"
       style="fill:none;stroke:#000000;stroke-width:1;stroke-linecap:round;stroke-linejoin:round;stroke-miterlimit:4;stroke-dasharray:none;stroke-dashoffset:2.64583;stroke-opacity:1" />
    <path
       id="path869"
       d="M 10.583334,14.816667 H 2.1166667"
       style="fill:none;stroke:#000000;stroke-width:1;stroke-linecap:round;stroke-linejoin:round;stroke-miterlimit:4;stroke-dasharray:none;stroke-dashoffset:2.64583;stroke-opacity:1" />
    <path
       id="path871"
       d="M 2.1166667,2.1166667 V 27.516667"
       style="fill:none;stroke:#000000;stroke-width:1;stroke-linecap:round;stroke-linejoin:round;stroke-miterlimit:4;stroke-dasharray:none;stroke-dashoffset:2.64583;stroke-opacity:1" />
    <path
       id="path875"
       d="m 25.400001,21.166668 v 2.116667 c 0,0 0,4.233333 4.233333,4.233333 4.233333,0 4.233333,-4.233333 4.233333,-4.233333 v -2.116667 c 0,0 0,-4.233333 -4.233333,-4.233333 -4.233333,0 -4.233333,4.233333 -4.233333,4.233333 z"
       style="fill:none;stroke:#000000;stroke-width:1;stroke-linecap:round;stroke-linejoin:round;stroke-miterlimit:4;stroke-dasharray:none;stroke-opacity:1" />
    <path
       id="path877"
       d="M 23.283333,10.583334 V 27.516667"
       style="fill:none;stroke:#000000;stroke-width:1;stroke-linecap:round;stroke-linejoin:round;stroke-miterlimit:4;stroke-dasharray:none;stroke-opacity:1" />
    <path
       id="path889"
       d="m 35.983333,27.516667 c 0,0 0,-6.35 0,-8.466667 0,-2.116666 2.116667,-2.116666 2.116667,-2.116666 0,0 2.116666,0 2.116666,2.116666 0,2.116667 0,2.116667 0,2.116667 V 19.05 c 0,0 0,-2.116666 2.116667,-2.116666 C 44.45,16.933334 44.45,19.05 44.45,19.05 v 8.466667"
       style="fill:none;stroke:#000000;stroke-width:1;stroke-linecap:round;stroke-linejoin:round;stroke-miterlimit:4;stroke-dasharray:none;stroke-opacity:1" />
    <path
       sodipodi:nodetypes="cc"
       id="path891"
       d="m 15.875,14.816667 h 1.058333"
       style="fill:none;stroke:#000000;stroke-width:1;stroke-linecap:round;stroke-linejoin:round;stroke-miterlimit:4;stroke-dasharray:none;stroke-opacity:1" />
    <path
       sodipodi:nodetypes="cc"
       id="path893"
       d="m 15.875,23.283334 h 1.058333"
       style="fill:none;stroke:#000000;stroke-width:1;stroke-linecap:round;stroke-linejoin:round;stroke-miterlimit:4;stroke-dasharray:none;stroke-opacity:1" />
    <path
       id="path895"
       d="m 29.633333,21.166667 v 2.116667"
       style="fill:none;stroke:#000000;stroke-width:1;stroke-linecap:round;stroke-linejoin:round;stroke-miterlimit:4;stroke-dasharray:none;stroke-opacity:1" />
  </g>
</svg>
